<svg width="28" height="28" viewBox="0 0 28 28" fill="none" xmlns="http://www.w3.org/2000/svg">
<g id="vuesax/linear/moneys">
<g id="Group">
<path id="Vector" d="M22.5167 9.23998V15.2483C22.5167 18.8417 20.4633 20.3816 17.3833 20.3816H7.12832C6.60332 20.3816 6.10166 20.335 5.63499 20.23C5.34332 20.1834 5.06333 20.1017 4.80667 20.0084C3.05667 19.355 1.995 17.8383 1.995 15.2483V9.23998C1.995 5.64665 4.04832 4.10669 7.12832 4.10669H17.3833C19.9967 4.10669 21.875 5.21502 22.3767 7.74668C22.4583 8.21335 22.5167 8.69165 22.5167 9.23998Z" stroke="#AAA3AA" stroke-width="1.5" stroke-miterlimit="10" stroke-linecap="round" stroke-linejoin="round"/>
<path id="Vector_2" d="M26.0179 12.7401V18.7485C26.0179 22.3418 23.9646 23.8818 20.8846 23.8818H10.6296C9.76627 23.8818 8.98462 23.7652 8.30795 23.5085C6.91962 22.9952 5.97461 21.9335 5.63628 20.2302C6.10294 20.3352 6.60461 20.3818 7.12961 20.3818H17.3846C20.4646 20.3818 22.5179 18.8418 22.5179 15.2485V9.24012C22.5179 8.69179 22.4713 8.20183 22.3779 7.74683C24.5946 8.21349 26.0179 9.77679 26.0179 12.7401Z" stroke="#AAA3AA" stroke-width="1.5" stroke-miterlimit="10" stroke-linecap="round" stroke-linejoin="round"/>
<path id="Vector_3" d="M12.2482 15.3299C13.9492 15.3299 15.3282 13.9509 15.3282 12.2498C15.3282 10.5488 13.9492 9.16983 12.2482 9.16983C10.5471 9.16983 9.16817 10.5488 9.16817 12.2498C9.16817 13.9509 10.5471 15.3299 12.2482 15.3299Z" stroke="#AAA3AA" stroke-width="1.5" stroke-miterlimit="10" stroke-linecap="round" stroke-linejoin="round"/>
<path id="Vector_4" d="M5.57668 9.68332V14.8167" stroke="#AAA3AA" stroke-width="1.5" stroke-miterlimit="10" stroke-linecap="round" stroke-linejoin="round"/>
<path id="Vector_5" d="M18.9253 9.68369V14.817" stroke="#AAA3AA" stroke-width="1.5" stroke-miterlimit="10" stroke-linecap="round" stroke-linejoin="round"/>
</g>
</g>
</svg>
