<svg width="42" height="42" viewBox="0 0 42 42" fill="none" xmlns="http://www.w3.org/2000/svg">
<g id="Group 33496">
<circle id="Ellipse 140" cx="21" cy="21" r="21" fill="#3EB25B" fill-opacity="0.5"/>
<circle id="Ellipse 141" cx="21" cy="21" r="19" fill="#3EB25B" fill-opacity="0.5"/>
<circle id="Ellipse 142" cx="21.3333" cy="20.6667" r="14" fill="#FBFBFB"/>
<g id="Vector">
<path d="M21.3333 6.66666C25.0463 6.66666 28.6072 8.14165 31.2327 10.7672C33.8583 13.3927 35.3333 16.9536 35.3333 20.6667C35.3333 24.3797 33.8583 27.9406 31.2327 30.5662C28.6072 33.1917 25.0463 34.6667 21.3333 34.6667C17.6202 34.6667 14.0593 33.1917 11.4338 30.5662C8.80825 27.9406 7.33325 24.3797 7.33325 20.6667C7.33325 16.9536 8.80825 13.3927 11.4338 10.7672C14.0593 8.14165 17.6202 6.66666 21.3333 6.66666ZM19.5893 23.4287L16.4793 20.3167C16.3678 20.2052 16.2354 20.1167 16.0897 20.0564C15.9441 19.996 15.7879 19.965 15.6303 19.965C15.4726 19.965 15.3164 19.996 15.1708 20.0564C15.0251 20.1167 14.8927 20.2052 14.7813 20.3167C14.5561 20.5418 14.4296 20.8472 14.4296 21.1657C14.4296 21.4841 14.5561 21.7895 14.7813 22.0147L18.7413 25.9747C18.8524 26.0867 18.9847 26.1756 19.1304 26.2363C19.2761 26.297 19.4324 26.3283 19.5903 26.3283C19.7481 26.3283 19.9044 26.297 20.0501 26.2363C20.1958 26.1756 20.3281 26.0867 20.4393 25.9747L28.6393 17.7727C28.7522 17.6616 28.8421 17.5293 28.9037 17.3834C28.9653 17.2374 28.9974 17.0808 28.9981 16.9223C28.9989 16.7639 28.9682 16.607 28.908 16.4605C28.8478 16.3139 28.7591 16.1808 28.6472 16.0687C28.5352 15.9567 28.4022 15.8679 28.2558 15.8075C28.1093 15.747 27.9524 15.7162 27.794 15.7168C27.6356 15.7173 27.4788 15.7492 27.3328 15.8107C27.1868 15.8721 27.0544 15.9618 26.9433 16.0747L19.5893 23.4287Z" fill="#2E2E2E"/>
<path d="M21.3333 6.66666C25.0463 6.66666 28.6072 8.14165 31.2327 10.7672C33.8583 13.3927 35.3333 16.9536 35.3333 20.6667C35.3333 24.3797 33.8583 27.9406 31.2327 30.5662C28.6072 33.1917 25.0463 34.6667 21.3333 34.6667C17.6202 34.6667 14.0593 33.1917 11.4338 30.5662C8.80825 27.9406 7.33325 24.3797 7.33325 20.6667C7.33325 16.9536 8.80825 13.3927 11.4338 10.7672C14.0593 8.14165 17.6202 6.66666 21.3333 6.66666ZM19.5893 23.4287L16.4793 20.3167C16.3678 20.2052 16.2354 20.1167 16.0897 20.0564C15.9441 19.996 15.7879 19.965 15.6303 19.965C15.4726 19.965 15.3164 19.996 15.1708 20.0564C15.0251 20.1167 14.8927 20.2052 14.7813 20.3167C14.5561 20.5418 14.4296 20.8472 14.4296 21.1657C14.4296 21.4841 14.5561 21.7895 14.7813 22.0147L18.7413 25.9747C18.8524 26.0867 18.9847 26.1756 19.1304 26.2363C19.2761 26.297 19.4324 26.3283 19.5903 26.3283C19.7481 26.3283 19.9044 26.297 20.0501 26.2363C20.1958 26.1756 20.3281 26.0867 20.4393 25.9747L28.6393 17.7727C28.7522 17.6616 28.8421 17.5293 28.9037 17.3834C28.9653 17.2374 28.9974 17.0808 28.9981 16.9223C28.9989 16.7639 28.9682 16.607 28.908 16.4605C28.8478 16.3139 28.7591 16.1808 28.6472 16.0687C28.5352 15.9567 28.4022 15.8679 28.2558 15.8075C28.1093 15.747 27.9524 15.7162 27.794 15.7168C27.6356 15.7173 27.4788 15.7492 27.3328 15.8107C27.1868 15.8721 27.0544 15.9618 26.9433 16.0747L19.5893 23.4287Z" fill="#3EB25B"/>
</g>
</g>
</svg>
