<svg width="28" height="28" viewBox="0 0 28 28" fill="none" xmlns="http://www.w3.org/2000/svg">
<g id="vuesax/linear/empty-wallet-add">
<g id="Group">
<path id="Vector" d="M21.0467 15.8083C20.5567 16.2867 20.2767 16.975 20.3467 17.71C20.4517 18.97 21.6067 19.8917 22.8667 19.8917H25.0834V21.28C25.0834 23.695 23.1117 25.6667 20.6967 25.6667H8.90168C9.26335 25.3634 9.57835 24.99 9.82335 24.57C10.255 23.87 10.5 23.0417 10.5 22.1667C10.5 19.5884 8.41169 17.5 5.83335 17.5C4.73669 17.5 3.72169 17.885 2.91669 18.5267V13.4284C2.91669 11.0134 4.88836 9.04169 7.30336 9.04169H20.6967C23.1117 9.04169 25.0834 11.0134 25.0834 13.4284V15.1084H22.7267C22.0734 15.1084 21.4784 15.365 21.0467 15.8083Z" stroke="#FFCC0F" stroke-width="1.5" stroke-linecap="round" stroke-linejoin="round"/>
<path id="Vector_2" d="M2.91669 14.4783V9.14673C2.91669 7.75839 3.76835 6.52168 5.06335 6.03168L14.3267 2.53168C15.7734 1.98334 17.325 3.05671 17.325 4.60838V9.0417" stroke="#FFCC0F" stroke-width="1.5" stroke-linecap="round" stroke-linejoin="round"/>
</g>
<path id="Vector_3" d="M26.3186 16.2985V18.7019C26.3186 19.3436 25.8053 19.8685 25.152 19.8919H22.8653C21.6053 19.8919 20.4503 18.9702 20.3453 17.7102C20.2753 16.9752 20.5553 16.2869 21.0453 15.8085C21.477 15.3652 22.072 15.1086 22.7253 15.1086H25.152C25.8053 15.1319 26.3186 15.6568 26.3186 16.2985Z" stroke="#FFCC0F" stroke-width="1.5" stroke-linecap="round" stroke-linejoin="round"/>
<path id="Vector_4" d="M8.16669 14H16.3334" stroke="#FFCC0F" stroke-width="1.5" stroke-linecap="round" stroke-linejoin="round"/>
<g id="Group_2">
<path id="Vector_5" d="M10.5 22.1667C10.5 23.0417 10.255 23.87 9.82335 24.57C9.57835 24.99 9.26335 25.3633 8.90168 25.6667C8.08502 26.4017 7.01169 26.8333 5.83335 26.8333C4.13002 26.8333 2.64836 25.9233 1.84336 24.57C1.41169 23.87 1.16669 23.0417 1.16669 22.1667C1.16669 20.6967 1.84335 19.3783 2.91669 18.5267C3.72169 17.885 4.73669 17.5 5.83335 17.5C8.41169 17.5 10.5 19.5883 10.5 22.1667Z" stroke="#FFCC0F" stroke-width="1.5" stroke-miterlimit="10" stroke-linecap="round" stroke-linejoin="round"/>
<g id="Group_3">
<path id="Vector_6" d="M7.57371 22.1427H4.09705" stroke="#FFCC0F" stroke-width="1.5" stroke-miterlimit="10" stroke-linecap="round" stroke-linejoin="round"/>
<path id="Vector_7" d="M5.83337 20.4395V23.9278" stroke="#FFCC0F" stroke-width="1.5" stroke-miterlimit="10" stroke-linecap="round" stroke-linejoin="round"/>
</g>
</g>
</g>
</svg>
